<svg xmlns="http://www.w3.org/2000/svg" version="1.1" xmlns:xlink="http://www.w3.org/1999/xlink" xmlns:svgjs="http://svgjs.dev/svgjs" width="1500" height="1500" viewBox="0 0 1500 1500"><rect width="1500" height="1500" fill="#f3e7e3"></rect><g transform="matrix(0.6666666666666666,0,0,0.6666666666666666,249.39393939393938,635.3089913929282)"><svg viewBox="0 0 396 91" data-background-color="#f3e7e3" preserveAspectRatio="xMidYMid meet" height="344" width="1500" xmlns="http://www.w3.org/2000/svg" xmlns:xlink="http://www.w3.org/1999/xlink"><g id="tight-bounds" transform="matrix(1,0,0,1,0.2400000000000091,0.009658938561926789)"><svg viewBox="0 0 395.52 90.98068212287616" height="90.98068212287616" width="395.52"><g><svg viewBox="0 0 519.5669166607235 119.51494864045351" height="90.98068212287616" width="395.52"><g transform="matrix(1,0,0,1,124.0469166607235,24.88662660056687)"><svg viewBox="0 0 395.52 69.74169543931977" height="69.74169543931977" width="395.52"><g id="textblocktransform"><svg viewBox="0 0 395.52 69.74169543931977" height="69.74169543931977" width="395.52" id="textblock"><g><svg viewBox="0 0 395.52 69.74169543931977" height="69.74169543931977" width="395.52"><g transform="matrix(1,0,0,1,0,0)"><svg width="395.52" viewBox="3.66 -38.38 284.23999999999995 50.120000000000005" height="69.74169543931977" data-palette-color="#9e679c"><path d="M23.54-14.01L23.73-14.01Q24.07-15.33 24.48-16.61 24.88-17.9 25.46-19.48L25.46-19.48Q25.98-20.9 26.71-22.74 27.44-24.58 28.26-26.49 29.08-28.39 29.86-30.03 30.64-31.67 31.27-32.64L31.27-32.64Q32.06-33.84 32.97-34.42 33.89-35.01 35.67-35.01L35.67-35.01 38.87-35.01Q40.14-35.01 41-34.63 41.87-34.25 42.24-32.84L42.24-32.84Q42.5-31.79 42.75-29.76 42.99-27.73 43.16-24.15 43.33-20.56 43.43-14.93 43.53-9.3 43.53-1.03L43.53-1.03Q43.53-0.59 43.24-0.29 42.94 0 42.53 0L42.53 0 36.96 0Q36.55 0 36.25-0.29 35.96-0.59 35.96-1.05L35.96-1.05Q35.96-7.5 35.96-11.99 35.96-16.48 35.94-19.43 35.91-22.39 35.88-24.13 35.84-25.88 35.77-26.83L35.77-26.83 35.62-26.83Q34.33-23.85 32.86-20.2 31.4-16.55 30-12.68 28.61-8.81 27.51-5.13L27.51-5.13Q27.2-4.03 26.72-3.6 26.25-3.17 24.56-3.17L24.56-3.17 21.75-3.17Q20.31-3.17 19.84-3.54 19.36-3.91 19.02-5.13L19.02-5.13Q18.21-7.91 17.24-11.01 16.26-14.11 15.22-17.1 14.18-20.09 13.22-22.62 12.26-25.15 11.5-26.83L11.5-26.83 11.35-26.83Q11.16-23.95 11.01-19.82 10.86-15.7 10.78-10.86 10.69-6.03 10.67-1L10.67-1Q10.67-0.56 10.38-0.28 10.08 0 9.67 0L9.67 0 4.66 0Q4.25 0 3.96-0.29 3.66-0.59 3.66-1.05L3.66-1.05Q3.69-14.06 4.19-21.83 4.69-29.59 5.27-32.23L5.27-32.23Q5.66-33.96 6.65-34.48 7.64-35.01 8.91-35.01L8.91-35.01 12.87-35.01Q14.21-35.01 14.83-34.53 15.45-34.06 16.36-32.69L16.36-32.69Q16.89-31.88 17.64-30.27 18.38-28.66 19.19-26.7 20-24.73 20.72-22.81 21.44-20.9 21.9-19.48L21.9-19.48Q22.39-18.04 22.8-16.69 23.22-15.33 23.54-14.01L23.54-14.01ZM62.47 0.61L62.47 0.61Q56.32 0.61 52.73-2.66 49.14-5.93 49.14-12.4L49.14-12.4Q49.14-19.04 52.87-22.33 56.59-25.61 62.81-25.61L62.81-25.61Q68.82-25.61 72.43-22.38 76.05-19.14 76.05-12.84L76.05-12.84Q76.05-6.27 72.43-2.83 68.82 0.61 62.47 0.61ZM62.72-5.3L62.72-5.3Q65.4-5.3 66.77-6.97 68.14-8.64 68.14-12.7L68.14-12.7Q68.14-16.55 66.76-18.13 65.38-19.7 62.67-19.7L62.67-19.7Q60.06-19.7 58.55-18.01 57.05-16.31 57.05-12.5L57.05-12.5Q57.05-8.52 58.48-6.91 59.91-5.3 62.72-5.3ZM103.66-22.44L103.66-22.44Q104.56-23.54 106.45-24.57 108.34-25.61 111.79-25.61L111.79-25.61Q116.67-25.61 118.84-23.1 121.02-20.58 121.02-15.55L121.02-15.55 121.02-1.29Q121.02-0.56 120.71-0.28 120.41 0 119.67 0L119.67 0 114.64 0Q113.91 0 113.61-0.28 113.3-0.56 113.3-1.29L113.3-1.29 113.3-14.28Q113.3-17.02 112.3-18.2 111.3-19.38 109.3-19.38L109.3-19.38Q107.51-19.38 106.48-18.59 105.44-17.8 105-16.46L105-16.46 105-1.29Q105-0.56 104.69-0.28 104.39 0 103.66 0L103.66 0 98.63 0Q97.9 0 97.59-0.28 97.29-0.56 97.29-1.29L97.29-1.29 97.29-14.28Q97.29-16.94 96.19-18.16 95.09-19.38 93.31-19.38L93.31-19.38Q91.62-19.38 90.6-18.55 89.57-17.72 89.01-16.46L89.01-16.46 89.01-1.29Q89.01-0.56 88.7-0.28 88.4 0 87.67 0L87.67 0 82.64 0Q81.9 0 81.6-0.28 81.29-0.56 81.29-1.29L81.29-1.29 81.29-21.75Q81.29-22.34 81.54-22.66L81.54-22.66Q82.05-23.34 82.77-24.05 83.49-24.76 84.54-25.56L84.54-25.56Q84.86-25.81 85.15-25.81L85.15-25.81Q85.42-25.81 85.76-25.56L85.76-25.56Q86.79-24.76 87.52-24.02 88.25-23.29 88.81-22.51L88.81-22.51 88.94-22.51Q89.77-23.56 91.52-24.58 93.28-25.61 96.55-25.61L96.55-25.61Q99.68-25.61 101.19-24.67 102.7-23.73 103.66-22.44ZM147.84-14.01L148.04-14.01Q148.38-15.33 148.78-16.61 149.19-17.9 149.77-19.48L149.77-19.48Q150.29-20.9 151.02-22.74 151.75-24.58 152.57-26.49 153.39-28.39 154.17-30.03 154.95-31.67 155.58-32.64L155.58-32.64Q156.36-33.84 157.28-34.42 158.2-35.01 159.98-35.01L159.98-35.01 163.18-35.01Q164.45-35.01 165.31-34.63 166.18-34.25 166.55-32.84L166.55-32.84Q166.81-31.79 167.06-29.76 167.3-27.73 167.47-24.15 167.64-20.56 167.74-14.93 167.84-9.3 167.84-1.03L167.84-1.03Q167.84-0.59 167.55-0.29 167.25 0 166.84 0L166.84 0 161.27 0Q160.86 0 160.56-0.29 160.27-0.59 160.27-1.05L160.27-1.05Q160.27-7.5 160.27-11.99 160.27-16.48 160.25-19.43 160.22-22.39 160.19-24.13 160.15-25.88 160.08-26.83L160.08-26.83 159.93-26.83Q158.64-23.85 157.17-20.2 155.71-16.55 154.31-12.68 152.92-8.81 151.82-5.13L151.82-5.13Q151.51-4.03 151.03-3.6 150.55-3.17 148.87-3.17L148.87-3.17 146.06-3.17Q144.62-3.17 144.15-3.54 143.67-3.91 143.33-5.13L143.33-5.13Q142.52-7.91 141.55-11.01 140.57-14.11 139.53-17.1 138.49-20.09 137.53-22.62 136.56-25.15 135.81-26.83L135.81-26.83 135.66-26.83Q135.47-23.95 135.32-19.82 135.17-15.7 135.09-10.86 135-6.03 134.98-1L134.98-1Q134.98-0.56 134.68-0.28 134.39 0 133.98 0L133.98 0 128.97 0Q128.56 0 128.26-0.29 127.97-0.59 127.97-1.05L127.97-1.05Q128-14.06 128.5-21.83 129-29.59 129.58-32.23L129.58-32.23Q129.97-33.96 130.96-34.48 131.95-35.01 133.22-35.01L133.22-35.01 137.18-35.01Q138.52-35.01 139.14-34.53 139.76-34.06 140.67-32.69L140.67-32.69Q141.2-31.88 141.95-30.27 142.69-28.66 143.5-26.7 144.3-24.73 145.02-22.81 145.74-20.9 146.21-19.48L146.21-19.48Q146.7-18.04 147.11-16.69 147.53-15.33 147.84-14.01L147.84-14.01ZM173.67-33.2L173.67-33.2Q173.67-33.52 173.87-33.76 174.06-34.01 174.38-34.4L174.38-34.4Q175.06-35.18 175.97-36.05 176.87-36.91 177.8-37.72L177.8-37.72Q178.38-38.18 178.68-38.18L178.68-38.18Q178.97-38.18 179.58-37.72L179.58-37.72Q181.56-36.01 182.95-34.4L182.95-34.4Q183.27-34.03 183.47-33.78 183.68-33.52 183.68-33.2L183.68-33.2Q183.68-32.89 183.47-32.64 183.27-32.4 182.92-31.98L182.92-31.98Q182.27-31.23 181.39-30.36 180.51-29.49 179.58-28.71L179.58-28.71Q179.24-28.42 179.04-28.33 178.85-28.25 178.68-28.25L178.68-28.25Q178.51-28.25 178.32-28.33 178.14-28.42 177.75-28.71L177.75-28.71Q176.77-29.49 175.92-30.36 175.06-31.23 174.38-32.03L174.38-32.03Q174.06-32.42 173.87-32.65 173.67-32.89 173.67-33.2ZM182.51-23.71L182.51-1.29Q182.51-0.56 182.2-0.28 181.9 0 181.17 0L181.17 0 176.14 0Q175.41 0 175.1-0.28 174.79-0.56 174.79-1.29L174.79-1.29 174.79-23.71Q174.79-24.44 175.1-24.72 175.41-25 176.14-25L176.14-25 181.17-25Q181.9-25 182.2-24.72 182.51-24.44 182.51-23.71L182.51-23.71ZM213.32-15.55L213.32-15.55 213.32-1.29Q213.32-0.56 213.01-0.28 212.71 0 211.97 0L211.97 0 206.95 0Q206.21 0 205.91-0.28 205.6-0.56 205.6-1.29L205.6-1.29 205.6-14.28Q205.6-16.94 204.48-18.16 203.36-19.38 201.43-19.38L201.43-19.38Q199.5-19.38 198.46-18.55 197.42-17.72 196.86-16.46L196.86-16.46 196.86-1.29Q196.86-0.56 196.56-0.28 196.25 0 195.52 0L195.52 0 190.49 0Q189.76 0 189.45-0.28 189.15-0.56 189.15-1.29L189.15-1.29 189.15-21.75Q189.15-22.34 189.39-22.66L189.39-22.66Q189.9-23.34 190.62-24.05 191.34-24.76 192.39-25.56L192.39-25.56Q192.71-25.81 193.01-25.81L193.01-25.81Q193.27-25.81 193.62-25.56L193.62-25.56Q194.64-24.76 195.37-24.02 196.11-23.29 196.67-22.51L196.67-22.51 196.79-22.51Q197.2-23.05 198.03-23.77 198.86-24.49 200.37-25.05 201.87-25.61 204.21-25.61L204.21-25.61Q206.51-25.61 208.58-24.68 210.66-23.75 211.99-21.56 213.32-19.36 213.32-15.55ZM244.08-22.66L244.08-22.66 244.08-2.86Q244.08 4.27 240.01 8.01 235.95 11.74 228.87 11.74L228.87 11.74Q225.94 11.74 224.23 11.32 222.52 10.89 221.64 10.5L221.64 10.5Q221.08 10.23 220.91 9.94L220.91 9.94Q220.66 9.55 220.36 8.79 220.05 8.03 219.78 7.13L219.78 7.13Q219.71 6.79 219.76 6.62L219.76 6.62Q219.86 6.37 220.13 6.1L220.13 6.1Q220.57 5.66 221.38 5.08 222.2 4.49 222.64 4.32L222.64 4.32Q223.11 4.15 223.5 4.37L223.5 4.37Q224.13 4.71 225.31 5.14 226.5 5.57 228.65 5.57L228.65 5.57Q232.07 5.57 234.21 3.81 236.36 2.05 236.36-1.61L236.36-1.61 236.36-2.49 236.26-2.49Q235.73-1.81 234.87-1.1 234.02-0.39 232.66 0.1 231.31 0.59 229.18 0.59L229.18 0.59Q225.5 0.59 223.14-1.01 220.79-2.61 219.67-5.42 218.56-8.23 218.56-11.82L218.56-11.82Q218.56-15.75 219.86-18.87 221.15-22 224.2-23.82 227.26-25.63 232.55-25.63L232.55-25.63Q235.73-25.63 237.89-25.17 240.05-24.71 241.51-24.02 242.98-23.34 244.08-22.66ZM232.28-19.73L232.28-19.73Q229.45-19.73 227.96-17.82 226.47-15.92 226.47-11.91L226.47-11.91Q226.47-5.64 231.65-5.64L231.65-5.64Q233.68-5.64 234.75-6.47 235.82-7.3 236.36-8.57L236.36-8.57 236.36-18.65Q235.82-19.04 234.85-19.38 233.87-19.73 232.28-19.73ZM258.97-1.83L253.86 0.51Q253.35 0.73 253.13 0.73L253.13 0.73Q252.91 0.73 252.67 0.56L252.67 0.56Q252.11 0.17 251.39-1.35 250.67-2.88 250.67-6.05L250.67-6.05 250.67-34.33Q250.67-34.91 250.91-35.23L250.91-35.23Q251.94-36.57 253.91-38.13L253.91-38.13Q254.25-38.38 254.52-38.38L254.52-38.38Q254.84-38.38 255.13-38.13L255.13-38.13Q256.18-37.33 256.9-36.62 257.62-35.91 258.14-35.23L258.14-35.23Q258.38-34.91 258.38-34.33L258.38-34.33 258.38-7.54Q258.38-5.93 258.65-4.8 258.92-3.66 259.28-2.98L259.28-2.98Q259.7-2.17 258.97-1.83L258.97-1.83ZM277.32 0.61L277.32 0.61Q273.2 0.61 270.15-0.72 267.09-2.05 265.41-4.86 263.73-7.67 263.73-12.11L263.73-12.11Q263.73-18.77 267.14-22.19 270.56-25.61 276.23-25.61L276.23-25.61Q279.91-25.61 282.46-24.29 285.01-22.97 286.34-20.65 287.68-18.33 287.68-15.36L287.68-15.36Q287.68-12.45 286.19-11.3 284.7-10.16 281.84-10.16L281.84-10.16 271.37-10.16Q271.56-7.64 273.21-6.32 274.86-5 277.69-5L277.69-5Q279.94-5 281.29-5.68 282.65-6.35 283.18-6.74L283.18-6.74Q283.65-7.08 284.23-7.06L284.23-7.06Q284.7-7.06 285.56-6.87 286.43-6.69 287.28-6.2L287.28-6.2Q287.9-5.88 287.9-5.32L287.9-5.32Q287.9-5 287.77-4.42L287.77-4.42Q287.7-4.08 287.53-3.43 287.36-2.78 287.09-2.22L287.09-2.22Q286.94-1.95 286.63-1.71L286.63-1.71Q286.14-1.37 285.05-0.81 283.96-0.24 282.08 0.18 280.2 0.61 277.32 0.61ZM271.32-15.16L271.32-15.16 279.28-15.16Q280.52-15.16 280.52-16.31L280.52-16.31Q280.52-18.04 279.44-19.23 278.35-20.41 276.18-20.41L276.18-20.41Q273.81-20.41 272.7-18.9 271.59-17.38 271.32-15.16Z" opacity="1" transform="matrix(1,0,0,1,0,0)" fill="#9e679c" class="wordmark-text-0" data-fill-palette-color="primary" id="text-0"></path></svg></g></svg></g></svg></g></svg></g><g><svg viewBox="0 0 107.58257616819064 119.51494864045351" height="119.51494864045351" width="107.58257616819064"><g><svg xmlns="http://www.w3.org/2000/svg" xmlns:xlink="http://www.w3.org/1999/xlink" version="1.1" x="0" y="0" viewBox="5 0 90.016 100" enable-background="new 0 0 100 100" xml:space="preserve" height="119.51494864045351" width="107.58257616819064" class="icon-icon-0" data-fill-palette-color="accent" id="icon-0"></svg></g></svg></g></svg></g><defs></defs><mask id="a14c53c5-a6b7-43b3-aa14-e244742b5c50"><g id="SvgjsG1791"><svg viewBox="0 0 395.52 90.98068212287616" height="90.98068212287616" width="395.52"><g><svg viewBox="0 0 519.5669166607235 119.51494864045351" height="90.98068212287616" width="395.52"><g transform="matrix(1,0,0,1,124.0469166607235,24.88662660056687)"><svg viewBox="0 0 395.52 69.74169543931977" height="69.74169543931977" width="395.52"><g id="SvgjsG1790"><svg viewBox="0 0 395.52 69.74169543931977" height="69.74169543931977" width="395.52" id="SvgjsSvg1789"><g><svg viewBox="0 0 395.52 69.74169543931977" height="69.74169543931977" width="395.52"><g transform="matrix(1,0,0,1,0,0)"><svg width="395.52" viewBox="3.66 -38.38 284.23999999999995 50.120000000000005" height="69.74169543931977" data-palette-color="#9e679c"><path d="M23.54-14.01L23.73-14.01Q24.07-15.33 24.48-16.61 24.88-17.9 25.46-19.48L25.46-19.48Q25.98-20.9 26.71-22.74 27.44-24.58 28.26-26.49 29.08-28.39 29.86-30.03 30.64-31.67 31.27-32.64L31.27-32.64Q32.06-33.84 32.97-34.42 33.89-35.01 35.67-35.01L35.67-35.01 38.87-35.01Q40.14-35.01 41-34.63 41.87-34.25 42.24-32.84L42.24-32.84Q42.5-31.79 42.75-29.76 42.99-27.73 43.16-24.15 43.33-20.56 43.43-14.93 43.53-9.3 43.53-1.03L43.53-1.03Q43.53-0.59 43.24-0.29 42.94 0 42.53 0L42.53 0 36.96 0Q36.55 0 36.25-0.29 35.96-0.59 35.96-1.05L35.96-1.05Q35.96-7.5 35.96-11.99 35.96-16.48 35.94-19.43 35.91-22.39 35.88-24.13 35.84-25.88 35.77-26.83L35.77-26.83 35.62-26.83Q34.33-23.85 32.86-20.2 31.4-16.55 30-12.68 28.61-8.81 27.51-5.13L27.51-5.13Q27.2-4.03 26.72-3.6 26.25-3.17 24.56-3.17L24.56-3.17 21.75-3.17Q20.31-3.17 19.84-3.54 19.36-3.91 19.02-5.13L19.02-5.13Q18.21-7.91 17.24-11.01 16.26-14.11 15.22-17.1 14.18-20.09 13.22-22.62 12.26-25.15 11.5-26.83L11.5-26.83 11.35-26.83Q11.16-23.95 11.01-19.82 10.86-15.7 10.78-10.86 10.69-6.03 10.67-1L10.67-1Q10.67-0.56 10.38-0.28 10.08 0 9.67 0L9.67 0 4.66 0Q4.25 0 3.96-0.29 3.66-0.59 3.66-1.05L3.66-1.05Q3.69-14.06 4.19-21.83 4.69-29.59 5.27-32.23L5.27-32.23Q5.66-33.96 6.65-34.48 7.64-35.01 8.91-35.01L8.91-35.01 12.87-35.01Q14.21-35.01 14.83-34.53 15.45-34.06 16.36-32.69L16.36-32.69Q16.89-31.88 17.64-30.27 18.38-28.66 19.19-26.7 20-24.73 20.72-22.81 21.44-20.9 21.9-19.48L21.9-19.48Q22.39-18.04 22.8-16.69 23.22-15.33 23.54-14.01L23.54-14.01ZM62.47 0.61L62.47 0.61Q56.32 0.61 52.73-2.66 49.14-5.93 49.14-12.4L49.14-12.4Q49.14-19.04 52.87-22.33 56.59-25.61 62.81-25.61L62.81-25.61Q68.82-25.61 72.43-22.38 76.05-19.14 76.05-12.84L76.05-12.84Q76.05-6.27 72.43-2.83 68.82 0.61 62.47 0.61ZM62.72-5.3L62.72-5.3Q65.4-5.3 66.77-6.97 68.14-8.64 68.14-12.7L68.14-12.7Q68.14-16.55 66.76-18.13 65.38-19.7 62.67-19.7L62.67-19.7Q60.06-19.7 58.55-18.01 57.05-16.31 57.05-12.5L57.05-12.5Q57.05-8.52 58.48-6.91 59.91-5.3 62.72-5.3ZM103.66-22.44L103.66-22.44Q104.56-23.54 106.45-24.57 108.34-25.61 111.79-25.61L111.79-25.61Q116.67-25.61 118.84-23.1 121.02-20.58 121.02-15.55L121.02-15.55 121.02-1.29Q121.02-0.56 120.71-0.28 120.41 0 119.67 0L119.67 0 114.64 0Q113.91 0 113.61-0.28 113.3-0.56 113.3-1.29L113.3-1.29 113.3-14.28Q113.3-17.02 112.3-18.2 111.3-19.38 109.3-19.38L109.3-19.38Q107.51-19.38 106.48-18.59 105.44-17.8 105-16.46L105-16.46 105-1.29Q105-0.56 104.69-0.28 104.39 0 103.66 0L103.66 0 98.63 0Q97.9 0 97.59-0.28 97.29-0.56 97.29-1.29L97.29-1.29 97.29-14.28Q97.29-16.94 96.19-18.16 95.09-19.38 93.31-19.38L93.31-19.38Q91.62-19.38 90.6-18.55 89.57-17.72 89.01-16.46L89.01-16.46 89.01-1.29Q89.01-0.56 88.7-0.28 88.4 0 87.67 0L87.67 0 82.64 0Q81.9 0 81.6-0.28 81.29-0.56 81.29-1.29L81.29-1.29 81.29-21.75Q81.29-22.34 81.54-22.66L81.54-22.66Q82.05-23.34 82.77-24.05 83.49-24.76 84.54-25.56L84.54-25.56Q84.86-25.81 85.15-25.81L85.15-25.81Q85.42-25.81 85.76-25.56L85.76-25.56Q86.79-24.76 87.52-24.02 88.25-23.29 88.81-22.51L88.81-22.51 88.94-22.51Q89.77-23.56 91.52-24.58 93.28-25.61 96.55-25.61L96.55-25.61Q99.68-25.61 101.19-24.67 102.7-23.73 103.66-22.44ZM147.84-14.01L148.04-14.01Q148.38-15.33 148.78-16.61 149.19-17.9 149.77-19.48L149.77-19.48Q150.29-20.9 151.02-22.74 151.75-24.58 152.57-26.49 153.39-28.39 154.17-30.03 154.95-31.67 155.58-32.64L155.58-32.64Q156.36-33.84 157.28-34.42 158.2-35.01 159.98-35.01L159.98-35.01 163.18-35.01Q164.45-35.01 165.31-34.63 166.18-34.25 166.55-32.84L166.55-32.84Q166.81-31.79 167.06-29.76 167.3-27.73 167.47-24.15 167.64-20.56 167.74-14.93 167.84-9.3 167.84-1.03L167.84-1.03Q167.84-0.59 167.55-0.29 167.25 0 166.84 0L166.84 0 161.27 0Q160.86 0 160.56-0.29 160.27-0.59 160.27-1.05L160.27-1.05Q160.27-7.5 160.27-11.99 160.27-16.48 160.25-19.43 160.22-22.39 160.19-24.13 160.15-25.88 160.08-26.83L160.08-26.83 159.93-26.83Q158.64-23.85 157.17-20.2 155.71-16.55 154.31-12.68 152.92-8.81 151.82-5.13L151.82-5.13Q151.51-4.03 151.03-3.6 150.55-3.17 148.87-3.17L148.87-3.17 146.06-3.17Q144.62-3.17 144.15-3.54 143.67-3.91 143.33-5.13L143.33-5.13Q142.52-7.91 141.55-11.01 140.57-14.11 139.53-17.1 138.49-20.09 137.53-22.62 136.56-25.15 135.81-26.83L135.81-26.83 135.66-26.83Q135.47-23.95 135.32-19.82 135.17-15.7 135.09-10.86 135-6.03 134.98-1L134.98-1Q134.98-0.56 134.68-0.28 134.39 0 133.98 0L133.98 0 128.97 0Q128.56 0 128.26-0.29 127.97-0.59 127.97-1.05L127.97-1.05Q128-14.06 128.5-21.83 129-29.59 129.58-32.23L129.58-32.23Q129.97-33.96 130.96-34.48 131.95-35.01 133.22-35.01L133.22-35.01 137.18-35.01Q138.52-35.01 139.14-34.53 139.76-34.06 140.67-32.69L140.67-32.69Q141.2-31.88 141.95-30.27 142.69-28.66 143.5-26.7 144.3-24.73 145.02-22.81 145.74-20.9 146.21-19.48L146.21-19.48Q146.7-18.04 147.11-16.69 147.53-15.33 147.84-14.01L147.84-14.01ZM173.67-33.2L173.67-33.2Q173.67-33.52 173.87-33.76 174.06-34.01 174.38-34.4L174.38-34.4Q175.06-35.18 175.97-36.05 176.87-36.91 177.8-37.72L177.8-37.72Q178.38-38.18 178.68-38.18L178.68-38.18Q178.97-38.18 179.58-37.72L179.58-37.72Q181.56-36.01 182.95-34.4L182.95-34.4Q183.27-34.03 183.47-33.78 183.68-33.52 183.68-33.2L183.68-33.2Q183.68-32.89 183.47-32.64 183.27-32.4 182.92-31.98L182.92-31.98Q182.27-31.23 181.39-30.36 180.51-29.49 179.58-28.71L179.58-28.71Q179.24-28.42 179.04-28.33 178.85-28.25 178.68-28.25L178.68-28.25Q178.51-28.25 178.32-28.33 178.14-28.42 177.75-28.71L177.75-28.71Q176.77-29.49 175.92-30.36 175.06-31.23 174.38-32.03L174.38-32.03Q174.06-32.42 173.87-32.65 173.67-32.89 173.67-33.2ZM182.51-23.71L182.51-1.29Q182.51-0.56 182.2-0.28 181.9 0 181.17 0L181.17 0 176.14 0Q175.41 0 175.1-0.28 174.79-0.56 174.79-1.29L174.79-1.29 174.79-23.71Q174.79-24.44 175.1-24.72 175.41-25 176.14-25L176.14-25 181.17-25Q181.9-25 182.2-24.72 182.51-24.44 182.51-23.71L182.51-23.71ZM213.32-15.55L213.32-15.55 213.32-1.29Q213.32-0.56 213.01-0.28 212.71 0 211.97 0L211.97 0 206.95 0Q206.21 0 205.91-0.28 205.6-0.56 205.6-1.29L205.6-1.29 205.6-14.28Q205.6-16.94 204.48-18.16 203.36-19.38 201.43-19.38L201.43-19.38Q199.5-19.38 198.46-18.55 197.42-17.72 196.86-16.46L196.86-16.46 196.86-1.29Q196.86-0.56 196.56-0.28 196.25 0 195.52 0L195.52 0 190.49 0Q189.76 0 189.45-0.28 189.15-0.56 189.15-1.29L189.15-1.29 189.15-21.75Q189.15-22.34 189.39-22.66L189.39-22.66Q189.9-23.34 190.62-24.05 191.34-24.76 192.39-25.56L192.39-25.56Q192.71-25.81 193.01-25.81L193.01-25.81Q193.27-25.81 193.62-25.56L193.62-25.56Q194.64-24.76 195.37-24.02 196.11-23.29 196.67-22.51L196.67-22.51 196.79-22.51Q197.2-23.05 198.03-23.77 198.86-24.49 200.37-25.05 201.87-25.61 204.21-25.61L204.21-25.61Q206.51-25.61 208.58-24.68 210.66-23.75 211.99-21.56 213.32-19.36 213.32-15.55ZM244.08-22.66L244.08-22.66 244.08-2.86Q244.08 4.27 240.01 8.01 235.95 11.74 228.87 11.74L228.87 11.74Q225.94 11.74 224.23 11.32 222.52 10.89 221.64 10.5L221.64 10.5Q221.08 10.23 220.91 9.94L220.91 9.94Q220.66 9.55 220.36 8.79 220.05 8.03 219.78 7.13L219.78 7.13Q219.71 6.79 219.76 6.62L219.76 6.62Q219.86 6.37 220.13 6.1L220.13 6.1Q220.57 5.66 221.38 5.08 222.2 4.49 222.64 4.32L222.64 4.32Q223.11 4.15 223.5 4.37L223.5 4.37Q224.13 4.71 225.31 5.14 226.5 5.57 228.65 5.57L228.65 5.57Q232.07 5.57 234.21 3.81 236.36 2.05 236.36-1.61L236.36-1.61 236.36-2.49 236.26-2.49Q235.73-1.81 234.87-1.1 234.02-0.39 232.66 0.1 231.31 0.59 229.18 0.59L229.18 0.59Q225.5 0.59 223.14-1.01 220.79-2.61 219.67-5.42 218.56-8.23 218.56-11.82L218.56-11.82Q218.56-15.75 219.86-18.87 221.15-22 224.2-23.82 227.26-25.63 232.55-25.63L232.55-25.63Q235.73-25.63 237.89-25.17 240.05-24.71 241.51-24.02 242.98-23.34 244.08-22.66ZM232.28-19.73L232.28-19.73Q229.45-19.73 227.96-17.82 226.47-15.92 226.47-11.91L226.47-11.91Q226.47-5.64 231.65-5.64L231.65-5.64Q233.68-5.64 234.75-6.47 235.82-7.3 236.36-8.57L236.36-8.57 236.36-18.65Q235.82-19.04 234.85-19.38 233.87-19.73 232.28-19.73ZM258.97-1.83L253.86 0.51Q253.35 0.73 253.13 0.73L253.13 0.73Q252.91 0.73 252.67 0.56L252.67 0.56Q252.11 0.17 251.39-1.35 250.67-2.88 250.67-6.05L250.67-6.05 250.67-34.33Q250.67-34.91 250.91-35.23L250.91-35.23Q251.94-36.57 253.91-38.13L253.91-38.13Q254.25-38.38 254.52-38.38L254.52-38.38Q254.84-38.38 255.13-38.13L255.13-38.13Q256.18-37.33 256.9-36.62 257.62-35.91 258.14-35.23L258.14-35.23Q258.38-34.91 258.38-34.33L258.38-34.33 258.38-7.54Q258.38-5.93 258.65-4.8 258.92-3.66 259.28-2.98L259.28-2.98Q259.7-2.17 258.97-1.83L258.97-1.83ZM277.32 0.61L277.32 0.61Q273.2 0.61 270.15-0.72 267.09-2.05 265.41-4.86 263.73-7.67 263.73-12.11L263.73-12.11Q263.73-18.77 267.14-22.19 270.56-25.61 276.23-25.61L276.23-25.61Q279.91-25.61 282.46-24.29 285.01-22.97 286.34-20.65 287.68-18.33 287.68-15.36L287.68-15.36Q287.68-12.45 286.19-11.3 284.7-10.16 281.84-10.16L281.84-10.16 271.37-10.16Q271.56-7.64 273.21-6.32 274.86-5 277.69-5L277.69-5Q279.94-5 281.29-5.68 282.65-6.35 283.18-6.74L283.18-6.74Q283.65-7.08 284.23-7.06L284.23-7.06Q284.7-7.06 285.56-6.87 286.43-6.69 287.28-6.2L287.28-6.2Q287.9-5.88 287.9-5.32L287.9-5.32Q287.9-5 287.77-4.42L287.77-4.42Q287.7-4.08 287.53-3.43 287.36-2.78 287.09-2.22L287.09-2.22Q286.94-1.95 286.63-1.71L286.63-1.71Q286.14-1.37 285.05-0.81 283.96-0.24 282.08 0.18 280.2 0.61 277.32 0.61ZM271.32-15.16L271.32-15.16 279.28-15.16Q280.52-15.16 280.52-16.31L280.52-16.31Q280.52-18.04 279.44-19.23 278.35-20.41 276.18-20.41L276.18-20.41Q273.81-20.41 272.7-18.9 271.59-17.38 271.32-15.16Z" opacity="1" transform="matrix(1,0,0,1,0,0)" fill="black" class="wordmark-text-0" id="SvgjsPath1788"></path></svg></g></svg></g></svg></g></svg></g><g><svg viewBox="0 0 107.58257616819064 119.51494864045351" height="119.51494864045351" width="107.58257616819064"><g><svg xmlns="http://www.w3.org/2000/svg" xmlns:xlink="http://www.w3.org/1999/xlink" version="1.1" x="0" y="0" viewBox="5 0 90.016 100" enable-background="new 0 0 100 100" xml:space="preserve" height="119.51494864045351" width="107.58257616819064" class="icon-icon-0" data-fill-palette-color="accent" id="SvgjsSvg1787"><g fill="white"><path d="M69.76 19.754c0 10.91-8.844 19.754-19.752 19.754-10.912 0-19.753-8.844-19.753-19.754C30.255 8.845 39.096 0 50.008 0 60.916 0 69.76 8.845 69.76 19.754z" fill="white"></path><path d="M34.395 100c1.544-0.104 3.06-0.72 4.237-1.899 2.591-2.589 2.591-6.787 0-9.377L27.136 77.226c-0.08-0.079-0.173-0.134-0.257-0.208l-6.848-6.848c-1.725-1.726-1.725-4.525 0.003-6.25 1.727-1.728 4.524-1.727 6.251 0l13.467 13.467c1.885 1.884 4.16 3.131 6.566 3.771h7.551c2.406-0.64 4.684-1.887 6.566-3.771L73.902 63.92c1.727-1.728 4.523-1.727 6.251-0.002 1.727 1.727 1.727 4.525 0.002 6.252l-6.646 6.647c-0.166 0.138-0.346 0.253-0.502 0.408L61.51 88.724c-2.59 2.59-2.59 6.788 0 9.377 1.181 1.18 2.695 1.795 4.238 1.899h29.268l-5.6-27.3c-3.15-15.347-17.891-27.37-33.557-27.37H44.156c-15.668 0-30.408 12.023-33.557 27.37L5 100H34.395zM50.094 50.745c6.922 0 12.534 5.611 12.534 12.536s-5.612 12.536-12.534 12.536c-6.925 0-12.537-5.611-12.537-12.536S43.169 50.745 50.094 50.745z" fill="white"></path></g></svg></g></svg></g></svg></g><defs><mask></mask></defs></svg><rect width="395.52" height="90.98068212287616" fill="black" stroke="none" visibility="hidden"></rect></g></mask><linearGradient x1="0" x2="1" y1="0.548" y2="0.55" id="f5d0b65d-54fb-49b8-9f48-f9bdc80ec085"><stop stop-color="#ff6cab" offset="0"></stop><stop stop-color="#7366ff" offset="1"></stop></linearGradient><rect width="395.52000000000004" height="90.98068212287616" fill="url(#f5d0b65d-54fb-49b8-9f48-f9bdc80ec085)" mask="url(#a14c53c5-a6b7-43b3-aa14-e244742b5c50)" data-fill-palette-color="accent"></rect></svg><rect width="395.52" height="90.98068212287616" fill="none" stroke="none" visibility="hidden"></rect></g></svg></g></svg>